SplineFontDB: 3.2
FontName: ExploreSans
FullName: Explore Sans Bold
FamilyName: Explore Sans
Weight: Bold
Copyright: Copyright (c) 2024, Bastien
UComments: "2024-12-25: Created with FontForge (http://fontforge.org)"
Version: 001.000
ItalicAngle: 0
UnderlinePosition: -102
UnderlineWidth: 51
Ascent: 800
Descent: 224
InvalidEm: 0
LayerCount: 2
Layer: 0 0 "Arri+AOgA-re" 1
Layer: 1 0 "Avant" 0
XUID: [1021 760 1580941675 4706664]
FSType: 0
OS2Version: 0
OS2_WeightWidthSlopeOnly: 0
OS2_UseTypoMetrics: 1
CreationTime: 1735138560
ModificationTime: 1740936261
PfmFamily: 33
TTFWeight: 700
TTFWidth: 5
LineGap: 192
VLineGap: 0
OS2TypoAscent: 800
OS2TypoAOffset: 0
OS2TypoDescent: -224
OS2TypoDOffset: 0
OS2TypoLinegap: 192
OS2WinAscent: 800
OS2WinAOffset: 0
OS2WinDescent: 224
OS2WinDOffset: 0
HheadAscent: 800
HheadAOffset: 0
HheadDescent: 224
HheadDOffset: 0
OS2FamilyClass: 2049
OS2Vendor: 'PfEd'
Lookup: 258 0 0 "Kern Latin" { "Kern Latin-Latin" [153,0,2] } ['kern' ('DFLT' <'dflt' > 'latn' <'dflt' > ) ]
MarkAttachClasses: 1
DEI: 91125
KernClass2: 26 18 "Kern Latin-Latin"
 52 A Z Agrave Aacute Acircumflex Atilde Adieresis Aring
 46 O Q Ograve Oacute Ocircumflex Otilde Odieresis
 1 C
 1 D
 5 H M N
 3 F P
 77 I i l Igrave Iacute Icircumflex Idieresis igrave iacute icircumflex idieresis
 39 J U Ugrave Uacute Ucircumflex Udieresis
 3 K R
 1 L
 1 S
 10 T Y Yacute
 3 V W
 50 a agrave aacute acircumflex atilde adieresis aring
 3 b p
 43 c d e q egrave eacute ecircumflex edieresis
 3 f t
 50 h m n u ntilde ugrave uacute ucircumflex udieresis
 1 g
 26 k v w x y yacute ydieresis
 44 o ograve oacute ocircumflex otilde odieresis
 1 r
 3 s z
 9 ampersand
 3 one
 50 A Agrave Aacute Acircumflex Atilde Adieresis Aring
 48 C O Q Ograve Oacute Ocircumflex Otilde Odieresis
 37 I Igrave Iacute Icircumflex Idieresis
 1 S
 14 T V W Y Yacute
 50 a agrave aacute acircumflex atilde adieresis aring
 22 b h k m n p r s ntilde
 45 c d e q u egrave eacute ecircumflex edieresis
 1 g

StartChar: A
Encoding: 65 65 0
Width: 679
VWidth: 1048
Flags: W
HStem: 0 21G<24 162.676 517.003 655> 153 104<155 496> 687 20G<267.9 435.393>
AnchorPoint: "AccentCenter" 351 880 basechar 0
LayerCount: 2
Fore
SplineSet
155 257 m 5
 496 257 l 5
 496 153 l 5
 155 153 l 5
 155 257 l 5
429 707 m 1
 655 0 l 1
 523 0 l 1
 311 707 l 1
 429 707 l 1
275 707 m 1
 392 707 l 1
 156 0 l 1
 24 0 l 1
 275 707 l 1
EndSplineSet
Validated: 5
Colour: ff0000
EndChar

StartChar: B
Encoding: 66 66 1
Width: 627
VWidth: 1048
Flags: W
HStem: 0 108<192 418.831> 321 100<192 394.649> 599 108<192 405.979>
VStem: 64 128<108 321 421 599> 428 128<454.465 576.007> 459 128<145.733 282.781>
LayerCount: 2
Fore
SplineSet
192 599 m 1xf8
 192 421 l 1
 326 421 l 2
 387 421 428 457 428 520 c 0
 428 583 384 599 324 599 c 2
 192 599 l 1xf8
192 321 m 1
 192 108 l 5
 342 108 l 6
 409 108 459 141 459 204 c 0xf4
 459 285 418 321 337 321 c 2
 192 321 l 1
64 0 m 1
 64 707 l 1
 340 707 l 2
 464 707 556 642 556 531 c 0xf8
 556 436 495 389 446 369 c 1
 529 352 587 293 587 196 c 0
 587 56 476 0 360 0 c 2
 64 0 l 1
EndSplineSet
Validated: 1
EndChar

StartChar: C
Encoding: 67 67 2
Width: 636
VWidth: 1048
Flags: W
HStem: -8 108<270.014 456.9> 607 108<270.218 451.63>
VStem: 40 128<223.995 488.986>
LayerCount: 2
Fore
SplineSet
365 715 m 1
 450 715 532 678 591 608 c 1
 515 533 l 1
 470 586 420 607 358 607 c 1
 237.517264333 607 168 516.627556367 168 360 c 1
 168 197.571045572 239.301917918 100 358 100 c 1
 430 100 482 125 526 183 c 5
 599 109 l 1
 555 42 467 -8 353 -8 c 1
 167.020278856 -8 40 143.348329391 40 355.131596867 c 0
 40 571.801923312 172.950093829 715 365 715 c 1
EndSplineSet
Validated: 1
EndChar

StartChar: D
Encoding: 68 68 3
Width: 665
VWidth: 1048
Flags: W
HStem: 0 108<192 390.67> 599 108<192 394.936>
VStem: 497 128<227.318 486.097>
LayerCount: 2
Fore
SplineSet
192 707 m 1
 284 707 l 1
 498 707 625 566 625 361 c 0
 625 138 497 0 280 0 c 1
 192 0 l 1
 192 108 l 5
 290 108 l 5
 399 108 497 166 497 361 c 0
 497 544 398 599 292 599 c 1
 192 599 l 1
 192 707 l 1
64 707 m 1
 192 707 l 1
 192 0 l 1
 64 0 l 1
 64 707 l 1
EndSplineSet
Validated: 5
EndChar

StartChar: E
Encoding: 69 69 4
Width: 582
VWidth: 1048
Flags: W
HStem: 0 108<192 542> 316 104<192 484> 599 108<192 542>
AnchorPoint: "AccentCenter" 323 880 basechar 0
LayerCount: 2
Fore
SplineSet
192 420 m 1
 484 420 l 1
 484 316 l 1
 192 316 l 1
 192 420 l 1
192 108 m 5
 542 108 l 5
 542 0 l 1
 192 0 l 1
 192 108 l 5
192 707 m 1
 542 707 l 1
 542 599 l 1
 192 599 l 1
 192 707 l 1
64 707 m 1
 192 707 l 1
 192 0 l 1
 64 0 l 1
 64 707 l 1
EndSplineSet
Validated: 5
EndChar

StartChar: F
Encoding: 70 70 5
Width: 569
VWidth: 1048
Flags: W
HStem: 0 21G<64 192> 316 104<192 459> 599 108<192 537>
VStem: 64 128<0 316 420 599>
LayerCount: 2
Fore
SplineSet
192 420 m 1
 459 420 l 5
 459 316 l 5
 192 316 l 1
 192 420 l 1
192 707 m 1
 537 707 l 5
 537 599 l 5
 192 599 l 1
 192 707 l 1
64 707 m 1
 192 707 l 1
 192 0 l 1
 64 0 l 1
 64 707 l 1
EndSplineSet
Validated: 5
Colour: ff0000
EndChar

StartChar: G
Encoding: 71 71 6
Width: 655
VWidth: 1048
Flags: W
HStem: -8 108<273.487 454.478> 314 104<330 487> 607 108<269.367 457.026>
VStem: 40 128<221.932 486.923> 487 128<127 314>
LayerCount: 2
Fore
SplineSet
615 108 m 1
 559 36 475 -8 355 -8 c 1
 200 -8 40 84 40 358 c 1
 40 592 180 715 357 715 c 1
 453 715 546.299804688 677 596 606 c 5
 516 532 l 5
 476 594 409 607 354 607 c 1
 241 607 169.84765625 519 168 358 c 1
 168.241104849 172 257 100 365 100 c 1
 417 100 462 120 487 144 c 1
 487 314 l 1
 330 314 l 1
 330 418 l 1
 615 418 l 1
 615 108 l 1
EndSplineSet
Validated: 1
EndChar

StartChar: H
Encoding: 72 72 7
Width: 679
VWidth: 1048
Flags: W
HStem: 0 21G<64 192 487 615> 315 104<192 487> 687 20G<64 192 487 615>
VStem: 64 128<0 315 419 707> 487 128<0 315 419 707>
LayerCount: 2
Fore
SplineSet
192 419 m 5
 487 419 l 5
 487 315 l 5
 192 315 l 5
 192 419 l 5
487 707 m 5
 615 707 l 5
 615 0 l 1
 487 0 l 1
 487 707 l 5
64 707 m 1
 192 707 l 5
 192 0 l 1
 64 0 l 1
 64 707 l 1
EndSplineSet
Validated: 5
EndChar

StartChar: I
Encoding: 73 73 8
Width: 256
VWidth: 1048
Flags: W
HStem: 0 21G<64 192> 687 20G<64 192>
VStem: 64 128<0 707>
AnchorPoint: "AccentCenter" 156 880 basechar 0
LayerCount: 2
Fore
SplineSet
64 707 m 1
 192 707 l 5
 192 0 l 5
 64 0 l 1
 64 707 l 1
EndSplineSet
Validated: 1
EndChar

StartChar: J
Encoding: 74 74 9
Width: 406
VWidth: 1048
Flags: W
HStem: -8 104<38.0602 168.259> 687 20G<214 342>
VStem: 214 128<145.561 707>
LayerCount: 2
Fore
SplineSet
342 707 m 1
 342 246 l 1
 342 88 241 -8 116 -8 c 1
 71 -8 40 -3 24 4 c 1
 40 106 l 1
 51 101 71 96 92 96 c 3
 175 96 214 145 214 243 c 1
 214 707 l 1
 342 707 l 1
EndSplineSet
Validated: 1
EndChar

StartChar: K
Encoding: 75 75 10
Width: 642
VWidth: 1048
Flags: W
HStem: 0 21G<64 194 429.586 614> 687 20G<64 194 427.884 613>
VStem: 64 130<0 707>
LayerCount: 2
Fore
SplineSet
614 0 m 1
 445 0 l 1
 166 362 l 1
 282 401 l 1
 614 0 l 1
282 319 m 1
 166 362 l 1
 444 707 l 1
 613 707 l 1
 282 319 l 1
64 707 m 1
 194 707 l 1
 194 0 l 1
 64 0 l 1
 64 707 l 1
EndSplineSet
Validated: 5
Colour: ff0000
EndChar

StartChar: L
Encoding: 76 76 11
Width: 550
VWidth: 1048
Flags: W
HStem: 0 108<192 518> 687 20G<64 192>
VStem: 64 128<108 707>
LayerCount: 2
Fore
SplineSet
192 108 m 5
 518 108 l 5
 518 0 l 1
 192 0 l 1
 192 108 l 5
64 707 m 1
 192 707 l 1
 192 0 l 1
 64 0 l 1
 64 707 l 1
EndSplineSet
Validated: 5
EndChar

StartChar: M
Encoding: 77 77 12
Width: 765
VWidth: 1048
Flags: W
HStem: 0 21G<64 192 573 701> 687 20G<64 228.457 536.833 701>
VStem: 64 128<0 578> 573 128<0 578>
LayerCount: 2
Fore
SplineSet
580 707 m 17
 628 578 l 1
 458 156 l 1
 320 156 l 1
 545 707 l 1
 580 707 l 17
186 707 m 25
 220 707 l 1
 453 156 l 1
 316 156 l 1
 138 578 l 1
 186 707 l 25
573 707 m 1
 701 707 l 1
 701 0 l 1
 573 0 l 1
 573 707 l 1
64 707 m 1
 192 707 l 1
 192 0 l 1
 64 0 l 1
 64 707 l 1
EndSplineSet
Validated: 5
EndChar

StartChar: N
Encoding: 78 78 13
Width: 679
VWidth: 1048
Flags: W
HStem: 0 21G<64 192 465.39 615> 687 20G<64 213.767 487 615>
VStem: 64 128<0 503> 185 7<503 707> 487 128<209 707> 487 8<0 209>
LayerCount: 2
Fore
SplineSet
185 707 m 1xd4
 202 707 l 1
 495 209 l 5
 495 0 l 5
 477 0 l 5
 185 503 l 1
 185 707 l 1xd4
487 707 m 5xc8
 615 707 l 5
 615 0 l 5xc8
 487 0 l 5xc4
 487 707 l 5xc8
64 707 m 1xe0
 192 707 l 1xd0
 192 0 l 1
 64 0 l 1
 64 707 l 1xe0
EndSplineSet
Validated: 5
EndChar

StartChar: O
Encoding: 79 79 14
Width: 717
VWidth: 1048
Flags: W
HStem: -8 108<269.964 449.622> 607 108<269.011 448.711>
VStem: 40 128<220.18 487.441> 549 128<219.621 491.048>
AnchorPoint: "AccentCenter" 364 868 basechar 0
LayerCount: 2
Fore
SplineSet
168 354.093535361 m 0
 168 190.971553961 236.311108662 100 358.800424402 100 c 0
 482.378827108 100 549 193.225585938 549 354.08203125 c 0
 549 514.57421875 482.659334488 607 358.781204819 607 c 0
 236.019120345 607 168 516.831394184 168 354.093535361 c 0
40 353.94053872 m 0
 40 569.749632162 170.023785426 715 363.209631879 715 c 0
 555.503349542 715 677 571.060546875 677 352.251953125 c 0
 677 134.240234375 548.815429688 -8 356.943359375 -8 c 0
 162.639648438 -8 40 137.51357975 40 353.94053872 c 0
EndSplineSet
Validated: 1
EndChar

StartChar: P
Encoding: 80 80 15
Width: 626
VWidth: 1048
Flags: W
HStem: 0 21G<64 192> 263 108<192 413.625> 599 108<192 412.938>
VStem: 64 128<0 263 371 599> 458 128<410.413 555.479>
LayerCount: 2
Fore
SplineSet
192 707 m 1
 192 707 280 707 354 707 c 0
 485 707 586 622 586 491 c 0
 586 346 474 263 331 263 c 9
 192 263 l 1
 192 371 l 1
 329 371 l 1
 417 371 458 411 458 487 c 0
 458 560 407 599 331 599 c 1
 192 599 l 1
 192 707 l 1
64 707 m 1
 192 707 l 1
 192 0 l 1
 64 0 l 1
 64 707 l 1
EndSplineSet
Validated: 5
Colour: ff0000
EndChar

StartChar: Q
Encoding: 81 81 16
Width: 717
VWidth: 1048
Flags: W
HStem: -184 104<451.504 590> -8 8<300 421> 607 108<269.011 448.711>
VStem: 40 128<220.18 487.441> 549 128<219.621 491.048>
AnchorPoint: "AccentCenter" 364 868 basechar 0
LayerCount: 2
Fore
SplineSet
168 354.093535361 m 0
 168 190.971553961 236.311108662 100 358.800424402 100 c 0
 482.378827108 100 549 193.225585938 549 354.08203125 c 0
 549 514.57421875 482.659334488 607 358.781204819 607 c 0
 236.019120345 607 168 516.831394184 168 354.093535361 c 0
40 353.94053872 m 0
 40 569.749632162 170.023785426 715 363.209631879 715 c 0
 555.503349542 715 677 571.060546875 677 352.251953125 c 0
 677 134.240234375 556.815005942 -8 364.943189102 -8 c 0
 170.63926696 -8 40 137.51357975 40 353.94053872 c 0
421 0 m 1
 421 0 426 -80 518 -80 c 0
 590 -80 l 1
 608 -166 l 5
 608 -166 568 -184 510 -184 c 0
 376 -184 300 -80 300 0 c 1
 421 0 l 1
EndSplineSet
Validated: 5
EndChar

StartChar: R
Encoding: 82 82 17
Width: 635
VWidth: 1048
Flags: W
HStem: 0 21G<64 192 448.007 603> 291 108<192 293 336 417.233> 291 11<293 414> 599 108<192 418.741>
VStem: 64 128<0 291 399 599> 450 128<430.42 566.674>
LayerCount: 2
Fore
SplineSet
293 302 m 1xbc
 414 302 l 1
 448 283 l 1
 603 0 l 1
 459 0 l 1
 293 302 l 1xbc
192 707 m 1
 192 707 281 707 355 707 c 0
 486 707 578 621 578 503 c 0
 578 376 479 291 336 291 c 1
 192 291 l 1
 192 399 l 1
 345 399 l 1xdc
 406 399 450 424 450 503 c 0
 450 577 398 599 341 599 c 1
 192 599 l 1
 192 707 l 1
64 707 m 1
 192 707 l 1
 192 0 l 1
 64 0 l 1
 64 707 l 1
EndSplineSet
Validated: 5
Colour: ff0000
EndChar

StartChar: S
Encoding: 83 83 18
Width: 601
VWidth: 1048
Flags: W
HStem: -8 108<204.059 394.847> 607 108<230.684 411.348>
VStem: 75 124<458.476 576.974> 433 128<136.823 259.57>
LayerCount: 2
Fore
SplineSet
318 715 m 1
 404 715 478 700 550 610 c 1
 462 539 l 1
 428 589 377 607 314 607 c 1
 241 607 200 574 199 527 c 1
 199 457 229 429 355 404 c 0
 486 378 561 311 561 191 c 1
 561 59 449 -8 305 -8 c 1
 195 -8 126 22 56 84 c 1
 134 174 l 1
 174 132 230 100 305 100 c 1
 377 100 432 129 433 189 c 1
 433 277 384 292 262 315 c 0
 127 340 75 426 75 527 c 1
 75 653 191 715 318 715 c 1
EndSplineSet
Validated: 1
EndChar

StartChar: T
Encoding: 84 84 19
Width: 619
VWidth: 1048
Flags: W
HStem: 0 21G<245 373> 599 108<40 245 373 579>
VStem: 245 128<0 599>
LayerCount: 2
Fore
SplineSet
40 707 m 1
 579 707 l 1
 579 599 l 5
 40 599 l 5
 40 707 l 1
245 599 m 5
 373 599 l 5
 373 0 l 1
 245 0 l 1
 245 599 l 5
EndSplineSet
Validated: 5
Colour: ff0000
EndChar

StartChar: U
Encoding: 85 85 20
Width: 659
VWidth: 1048
Flags: W
HStem: -8 108<248.293 407.397> 687 20G<60 188 471 599>
VStem: 60 128<169.917 707> 471 128<171.24 707>
AnchorPoint: "AccentCenter" 332 880 basechar 0
LayerCount: 2
Fore
SplineSet
60 707 m 1
 188 707 l 1
 188 291 l 1
 188 156 236 100 330 100 c 0
 418 100 471 156 471 291 c 1
 471 707 l 1
 599 707 l 1
 599 285 l 1
 599 85 495 -8 326 -8 c 4
 162 -8 60 85 60 287 c 1
 60 707 l 1
EndSplineSet
Validated: 1
EndChar

StartChar: V
Encoding: 86 86 21
Width: 699
VWidth: 1048
Flags: W
HStem: 0 21G<267.267 430.761> 687 20G<36 179.393 519.55 663>
LayerCount: 2
Fore
SplineSet
298 0 m 1
 526 707 l 1
 663 707 l 5
 424 0 l 5
 298 0 l 1
36 707 m 1
 173 707 l 5
 399 0 l 5
 274 0 l 1
 36 707 l 1
EndSplineSet
Validated: 5
Colour: ff0000
EndChar

StartChar: W
Encoding: 87 87 22
Width: 908
VWidth: 1048
Flags: W
HStem: 0 21G<190.389 365.969 546.156 717.611> 687 20G<32 173.819 734.181 876>
LayerCount: 2
Fore
SplineSet
663 0 m 1
 551 0 l 1
 396 640 l 1
 528 640 l 1
 663 0 l 1
876 707 m 1
 713 0 l 1
 603 0 l 1
 738 707 l 1
 876 707 l 1
245 0 m 1
 388 640 l 1
 520 640 l 1
 361 0 l 1
 245 0 l 1
32 707 m 1
 170 707 l 1
 305 0 l 1
 195 0 l 1
 32 707 l 1
EndSplineSet
Validated: 5
Colour: ff0000
EndChar

StartChar: X
Encoding: 88 88 23
Width: 686
VWidth: 1048
Flags: W
HStem: 0 21G<48 206.131 478.787 638> 687 20G<48 206.231 478.686 638>
LayerCount: 2
Fore
SplineSet
48 707 m 1
 194 707 l 1
 342 465 l 1
 491 707 l 1
 638 707 l 1
 409 354 l 1
 638 0 l 1
 491 0 l 1
 342 244 l 1
 194 0 l 1
 48 0 l 1
 271 354 l 5
 48 707 l 1
EndSplineSet
Validated: 1
EndChar

StartChar: Y
Encoding: 89 89 24
Width: 698
VWidth: 1048
Flags: W
HStem: 0 21G<287 415> 687 20G<48 200.138 498 650>
VStem: 287 128<0 275>
AnchorPoint: "AccentCenter" 320 880 basechar 0
LayerCount: 2
Fore
SplineSet
287 275 m 1
 415 275 l 5
 415 0 l 5
 287 0 l 1
 287 275 l 1
292 275 m 1
 508 707 l 1
 650 707 l 5
 410 263 l 5
 292 275 l 1
48 707 m 1
 190 709 l 5
 410 275 l 5
 292 263 l 1
 48 707 l 1
EndSplineSet
Validated: 5
Colour: ff0000
EndChar

StartChar: Z
Encoding: 90 90 25
Width: 615
VWidth: 1048
Flags: W
HStem: 0 104<206 551> 603 104<64 551>
LayerCount: 2
Fore
SplineSet
409 603 m 1
 551 603 l 1
 206 104 l 5
 64 104 l 5
 409 603 l 1
64 104 m 5
 551 104 l 5
 551 0 l 1
 64 0 l 1
 64 104 l 5
64 707 m 1
 551 707 l 1
 551 603 l 1
 64 603 l 1
 64 707 l 1
EndSplineSet
Validated: 5
EndChar

StartChar: bracketleft
Encoding: 91 91 26
Width: 448
VWidth: 1048
Flags: W
HStem: -66 104<205 347> 715 104<205 347>
VStem: 77 270<-66 38 715 819>
LayerCount: 2
Fore
SplineSet
205 715 m 1
 205 819 l 1
 347 819 l 1
 347 715 l 1
 205 715 l 1
205 -66 m 5
 205 38 l 1
 347 38 l 1
 347 -66 l 1
 205 -66 l 5
77 819 m 1
 205 819 l 1
 205 -66 l 1
 77 -66 l 1
 77 819 l 1
EndSplineSet
Validated: 5
EndChar

StartChar: backslash
Encoding: 92 92 27
Width: 624
VWidth: 1048
Flags: W
LayerCount: 2
Fore
SplineSet
77 795 m 5
 144 819 l 5
 523 -38 l 5
 456 -62 l 5
 77 795 l 5
EndSplineSet
Validated: 1
EndChar

StartChar: bracketright
Encoding: 93 93 28
Width: 449
VWidth: 1048
Flags: W
HStem: -66 104<77 220> 715 104<77 220>
VStem: 77 143<-66 38 715 819> 220 128<-66 819>
LayerCount: 2
Fore
SplineSet
220 715 m 5xe0
 77 715 l 5
 77 819 l 1
 220 819 l 1
 220 715 l 5xe0
220 -66 m 1
 77 -66 l 1
 77 38 l 1
 220 38 l 1
 220 -66 l 1
348 819 m 1xd0
 348 -66 l 1xd0
 220 -66 l 1
 220 819 l 1xe0
 348 819 l 1xd0
EndSplineSet
Validated: 5
EndChar

StartChar: asciicircum
Encoding: 94 94 29
Width: 505
VWidth: 1048
Flags: W
HStem: 667 185
VStem: 77 327
LayerCount: 2
Fore
SplineSet
77 716 m 25
 208 852 l 1
 273 852 l 25
 404 716 l 25
 364 667 l 25
 241 786 l 25
 118 667 l 25
 77 716 l 25
EndSplineSet
Validated: 1
EndChar

StartChar: underscore
Encoding: 95 95 30
Width: 579
VWidth: 1048
Flags: W
HStem: -104 104<95 496>
LayerCount: 2
Fore
SplineSet
95 0 m 1
 496 0 l 1
 496 -104 l 5
 95 -104 l 5
 95 0 l 1
EndSplineSet
Validated: 1
EndChar

StartChar: grave
Encoding: 96 96 31
Width: 424
VWidth: 1048
Flags: W
HStem: 765 185
VStem: 77 247
LayerCount: 2
Fore
SplineSet
290 765 m 1
 77 889 l 1
 120 950 l 1
 324 814 l 1
 290 765 l 1
EndSplineSet
Validated: 1
EndChar

StartChar: a
Encoding: 97 97 32
Width: 528
Flags: W
HStem: -8 104<184.411 299.451> 0 21G<350.5 472> 223 99<183.095 344> 419 108<162.643 315.383>
VStem: 40 128<113.317 207.985> 344 128<130.534 223 322 390.885> 353 119<0 57.344>
AnchorPoint: "AccentCenter" 263 686 basechar 0
AnchorPoint: "Ring" 267 686 basechar 0
LayerCount: 2
Fore
SplineSet
168 158 m 0xbc
 168 117 203 96 250 96 c 0
 312 96 344 146 344 207 c 2
 344 223 l 1
 260 223 l 2
 192 223 168 204 168 158 c 0xbc
345 64 m 1
 320 19 282 -8 215 -8 c 0
 104 -8 40 53 40 148 c 0
 40 253 109 322 249 322 c 2
 344 322 l 1
 344 336 l 2xbc
 344 394 293 419 245 419 c 0
 193 419 159 401 138 374 c 1
 63.2255859375 440.655273438 l 1
 118 501 176 527 257 527 c 0
 388 527 472 446 472 300 c 2xba
 472 167 l 1xbc
 472 0 l 5
 353 0 l 5x7a
 345 64 l 1
EndSplineSet
Validated: 1
EndChar

StartChar: b
Encoding: 98 98 33
Width: 616
VWidth: 1048
Flags: W
HStem: -8 108<262.747 399.411> 0 21G<64 178.82> 419 108<249.289 395.723> 695 20G<64 192>
VStem: 64 128<51.4734 89 196 715> 161 31<68 196> 448 128<153.271 363.943>
LayerCount: 2
Fore
SplineSet
64 715 m 5x7a
 192 715 l 5
 192 89 l 5
 175 0 l 5
 64 0 l 5
 64 715 l 5x7a
162 370 m 5
 177 481 256 527 348.91796875 527 c 4
 489.349609375 527 576 421.927734375 576 255.470703125 c 4
 576 98.04296875 490.495117188 -8 357.0078125 -8 c 4
 244 -8 167 68 161 196 c 5xb6
 192 262 l 5
 192 154.825195312 235.99609375 100 323.056640625 100 c 4xba
 407.696289062 100 448 151.819335938 448 258.731445312 c 4
 448 367.043945312 406.633789062 419 319.387695312 419 c 4
 233.758789062 419 192 368.953125 192 262 c 5
 162 370 l 5
EndSplineSet
Validated: 5
EndChar

StartChar: c
Encoding: 99 99 34
Width: 540
VWidth: 1048
Flags: W
HStem: -8 108<219.295 374.872> 419 108<224.379 370.56>
VStem: 40 128<154.824 358.117>
LayerCount: 2
Fore
SplineSet
511 105 m 0
 467 35 391 -8 294 -8 c 0
 140 -8 40 99 40 259 c 0
 40 423 135 527 294 527 c 0
 395 527 473 482 516 407 c 1
 417 339 l 1
 398 392 351 419 294 419 c 0
 215 419 168 359 168 254 c 0
 168 150 214 100 294 100 c 0
 351 100 397 125 417 175 c 0
 511 105 l 0
EndSplineSet
Validated: 1
EndChar

StartChar: d
Encoding: 100 100 35
Width: 616
VWidth: 1048
Flags: W
HStem: -8 108<216.589 353.253> 419 108<220.277 366.711>
VStem: 40 128<153.271 363.943> 424 31<68 196>
LayerCount: 2
Fore
SplineSet
552 715 m 5
 424 715 l 5
 424 89 l 5
 441 0 l 5
 552 0 l 5
 552 715 l 5
454 370 m 5
 439 481 360 527 267.08203125 527 c 4
 126.650390625 527 40 421.927734375 40 255.470703125 c 4
 40 98.04296875 125.504882812 -8 258.9921875 -8 c 4
 372 -8 449 68 455 196 c 5
 424 262 l 5
 424 154.825195312 380.00390625 100 292.943359375 100 c 4
 208.303710938 100 168 151.819335938 168 258.731445312 c 4
 168 367.043945312 209.366210938 419 296.612304688 419 c 4
 382.241210938 419 424 368.953125 424 262 c 5
 454 370 l 5
EndSplineSet
Validated: 5
EndChar

StartChar: e
Encoding: 101 101 36
Width: 555
VWidth: 1048
Flags: W
HStem: -8 108<219.081 374.701> 214 100<168 387> 423 104<210.783 350.012>
VStem: 40 128<150.232 214 314 377.385> 387 128<314 385.822>
AnchorPoint: "AccentCenter" 283 686 basechar 0
LayerCount: 2
Fore
SplineSet
285 423 m 1
 221 423 168 382 168 314 c 1
 387 314 l 1
 387 320 l 1
 387 378 350 423 285 423 c 1
287 527 m 0
 410 527 515 436 515 296 c 1
 515 269 507 231 494 214 c 1
 168 214 l 1
 172 149 220 100 296 100 c 0
 352 100 387 126 416 157 c 1
 488 85 l 1
 436 25 368 -8 295 -8 c 0
 156 -8 40 83 40 261 c 0
 40 424 143 527 287 527 c 0
EndSplineSet
EndChar

StartChar: f
Encoding: 102 102 37
Width: 437
VWidth: 1048
Flags: W
HStem: 0 21G<132 260> 415 104<40 377> 636 96<273.762 381> 636 87<322.312 381>
VStem: 132 128<0 621.102>
LayerCount: 2
Fore
SplineSet
330 636 m 5xe8
 276 636 260 615 260 553 c 5
 260 0 l 1
 132 0 l 1
 132 540 l 5
 132 672 202 732 321 732 c 1xe8
 349 732 377 727 392 723 c 1xd8
 381 636 l 1
 362 636 355 636 330 636 c 5xe8
40 519 m 5
 132 519 l 5
 377 519 l 5
 377 415 l 5
 40 415 l 5
 40 519 l 5
EndSplineSet
Validated: 5
EndChar

StartChar: g
Encoding: 103 103 38
Width: 557
VWidth: 1048
Flags: W
HStem: -192 96<166.274 389.458> 0 108<197.161 409.177> 182 62<173 246> 415 104<414 537> 431 96<178.965 313.131>
VStem: 28 128<-81.6529 -13.3759 296.325 407.893> 49 111<111.685 165.347> 339 124<296.549 406.543> 413 124<-70.8484 -6.2923 415 519>
LayerCount: 2
Fore
SplineSet
414 519 m 1xf080
 537 519 l 1
 537 415 l 1
 414 415 l 1
 414 519 l 1xf080
370 438 m 1
 414 519 l 1
 414 415 l 1
 384 415 l 1
 370 438 l 1
28 356.896114101 m 0xed
 28 460.762082148 111.887861291 527 243.174352302 527 c 0
 375.738469719 527 463 459.466608539 463 356.989833387 c 0
 463 253.182407222 373.457591694 182 243.014460391 182 c 0
 113.788705168 182 28 251.859970443 28 356.896114101 c 0xed
156 351.786812766 m 0
 156 301.245062642 189.822941021 271 246.50880191 271 c 0
 303.44042251 271 339 301.507884112 339 350.349815312 c 0
 339 399.782608287 302.574859545 431 244.877630915 431 c 0
 188.96348621 431 156 401.682287637 156 351.786812766 c 0
352 108 m 1
 460 108 537 64 537 -29 c 4xe480
 537 -144 399 -192 271 -192 c 0
 116 -192 28 -153 28 -60 c 1
 28 10 98 43 172 61 c 1
 201 108 l 1
 352 108 l 1
367 0 m 1
 206 0 l 1
 181 -8 156 -22 156 -51 c 1
 156 -77 178 -96 273 -96 c 0
 365 -96 413 -71 413 -41 c 0
 413 -14 395 0 367 0 c 1
268 183 m 1
 192 177 160 162 160 140 c 0
 160 122 173 108 201 108 c 0
 188 43 l 0
 86 43 49 81 49 134 c 0xe2
 49 204 173 244 246 244 c 1
 268 183 l 1
EndSplineSet
Validated: 5
Colour: ff0000
EndChar

StartChar: h
Encoding: 104 104 39
Width: 581
VWidth: 1048
Flags: W
HStem: 0 21G<64 192 397 525> 419 108<238.567 365.88> 687 20G<64 192>
VStem: 64 128<0 707> 168 24<362.341 446> 397 128<0 385.025>
AnchorPoint: "AccentCenter" 309 686 basechar 0
LayerCount: 2
Fore
SplineSet
168 394 m 1xec
 168 446 220 527 324 527 c 0
 454 527 525 435 525 326 c 1
 525 0 l 1
 397 0 l 1
 397 312 l 2
 397 383 360 419 307 419 c 0
 224 419 192 364 192 288 c 1xf4
 168 394 l 1xec
64 707 m 1
 192 707 l 1
 192 0 l 1
 64 0 l 1
 64 707 l 1
EndSplineSet
Validated: 5
EndChar

StartChar: i
Encoding: 105 105 40
Width: 303
VWidth: 1048
Flags: W
HStem: 0 21G<114 242> 415 104<16 170> 601 138<128.092 227.908>
VStem: 114 128<0 415 615.75 724.25> 114 56<415 519>
LayerCount: 2
Fore
SplineSet
16 519 m 5xe8
 170 519 l 5
 170 415 l 5
 16 415 l 5
 16 519 l 5xe8
109 670 m 0
 109 708 140 739 178 739 c 0
 216 739 247 708 247 670 c 0
 247 632 216 601 178 601 c 0
 140 601 109 632 109 670 c 0
114 0 m 5xf0
 114 519 l 5xe8
 242 519 l 5
 242 0 l 5
 114 0 l 5xf0
EndSplineSet
Validated: 5
EndChar

StartChar: j
Encoding: 106 106 41
Width: 259
VWidth: 1048
Flags: W
HStem: 499 20G<67 195> 601 138<81.0921 180.908>
VStem: 67 128<-55.6672 519 615.75 724.25>
LayerCount: 2
Fore
SplineSet
62 670 m 0
 62 708 93 739 131 739 c 0
 169 739 200 708 200 670 c 0
 200 632 169 601 131 601 c 0
 93 601 62 632 62 670 c 0
-32 -88 m 1
 26 -88 67 -53 67 12 c 1
 67 519 l 1
 195 519 l 1
 195 13 l 1
 192.551470588 -98 126 -192 0 -192 c 1
 -32 -88 l 1
EndSplineSet
Validated: 1
Colour: ff0000
EndChar

StartChar: k
Encoding: 107 107 42
Width: 542
VWidth: 1048
Flags: W
HStem: 0 21G<64 192 351.145 534> 499 20G<339.033 531>
VStem: 64 128<0 724>
LayerCount: 2
Fore
SplineSet
289 275 m 5
 534 0 l 5
 367 0 l 5
 149 275 l 5
 289 275 l 5
149 275 m 5
 356 519 l 5
 531 519 l 5
 289 275 l 5
 149 275 l 5
64 724 m 1
 192 724 l 1
 192 0 l 1
 64 0 l 1
 64 724 l 1
EndSplineSet
Validated: 5
Colour: ff0000
EndChar

StartChar: l
Encoding: 108 108 43
Width: 309
VWidth: 1048
Flags: W
HStem: -8 100<189.439 272> 3 89<195.729 272> 748 20G<56 184>
VStem: 56 128<100.378 768>
LayerCount: 2
Fore
SplineSet
194 -8 m 1xb0
 87 -8 56 55 56 158 c 1
 56 768 l 5
 184 768 l 5
 184 142 l 1
 184 110 199 92 232 92 c 1
 272 92 l 1xb0
 285 3 l 1x70
 260 -3 231 -8 194 -8 c 1xb0
EndSplineSet
Validated: 1
EndChar

StartChar: m
Encoding: 109 109 44
Width: 876
VWidth: 1048
Flags: W
HStem: 0 21G<64 192 380 508 692 820> 419 108<247.425 348.335 552.786 660.036> 499 20G<64 179.596>
VStem: 64 128<0 382 430 469.872> 182 10<321.789 449> 380 128<0 368.025> 692 128<0 387.943>
LayerCount: 2
Fore
SplineSet
480 384 m 1xc6
 480 458 542 527 642 527 c 1
 766 527 820 445 820 315 c 1
 820 0 l 1
 692 0 l 1
 692 308 l 1
 691.053710938 378 658 419 608 419 c 1
 544 419 508 378 508 312 c 1
 480 384 l 1xc6
182 382 m 1xce
 182 449 230 527 327 527 c 1
 440 527 469 477 496 384 c 1
 508 384 l 1
 508 0 l 1
 380 0 l 1
 380 311 l 1
 380 378 345 419 290 419 c 1
 214 419 192 356 192 298 c 1xd6
 182 382 l 1xce
64 519 m 1xb6
 176 519 l 1
 192 430 l 1
 192 0 l 1
 64 0 l 1
 64 519 l 1xb6
EndSplineSet
Validated: 5
EndChar

StartChar: n
Encoding: 110 110 45
Width: 581
VWidth: 1048
Flags: W
HStem: 0 21G<64 192 389 517> 419 108<241.204 356.556> 499 20G<64 180.156>
VStem: 64 128<0 378 442 476.496> 175 17<344.268 430> 389 128<0 385.025>
AnchorPoint: "AccentCenter" 325 686 basechar 0
LayerCount: 2
Fore
SplineSet
64 519 m 1xb4
 176 519 l 1
 192 442 l 1
 192 0 l 1
 64 0 l 1
 64 519 l 1xb4
175 378 m 1xcc
 175 430 203 527 329 527 c 0
 444 527 517 448 517 317 c 5
 517 0 l 5
 389 0 l 5
 389 307 l 6
 389 372 363 419 294 419 c 0
 224 419 192 374 192 298 c 1xd4
 175 378 l 1xcc
EndSplineSet
Validated: 5
EndChar

StartChar: o
Encoding: 111 111 46
Width: 592
VWidth: 1048
Flags: W
HStem: -8 108<219.43 370.301> 419 108<224.443 368.965>
VStem: 40 128<154.745 358.049> 424 128<158.389 357.767>
AnchorPoint: "AccentCenter" 293 686 basechar 0
LayerCount: 2
Fore
SplineSet
168 254 m 0
 168 149.905273438 214.3984375 100 294 100 c 0
 376.46875 100 424 153.375 424 258 c 0
 424 363.234375 375.510742188 419 294 419 c 0
 215.322265625 419 168 358.701171875 168 254 c 0
40 259 m 0
 40 422.979492188 134.952148438 527 294 527 c 0
 450.436523438 527 552 419.825195312 552 261 c 0
 552 101.354492188 449.491210938 -8 294 -8 c 0
 140.270507812 -8 40 98.7158203125 40 259 c 0
EndSplineSet
Validated: 1
EndChar

StartChar: p
Encoding: 112 112 47
Width: 616
VWidth: 1048
Flags: W
HStem: -9 108<249.289 395.723> 418 108<262.747 399.411>
VStem: 161 31<322 450> 448 128<154.057 364.729>
LayerCount: 2
Fore
SplineSet
64 -192 m 1
 192 -192 l 1
 192 429 l 1
 175 518 l 1
 64 518 l 1
 64 -192 l 1
162 148 m 1
 177 37 256 -9 348.91796875 -9 c 0
 489.349609375 -9 576 96.072265625 576 262.529296875 c 0
 576 419.95703125 490.495117188 526 357.0078125 526 c 0
 244 526 167 450 161 322 c 1
 192 256 l 1
 192 363.174804688 235.99609375 418 323.056640625 418 c 0
 407.696289062 418 448 366.180664062 448 259.268554688 c 0
 448 150.956054688 406.633789062 99 319.387695312 99 c 0
 233.758789062 99 192 149.046875 192 256 c 1
 162 148 l 1
EndSplineSet
Validated: 5
EndChar

StartChar: q
Encoding: 113 113 48
Width: 616
VWidth: 1048
Flags: W
HStem: -9 108<220.277 366.711> 418 108<216.589 353.253> 498 20G<437.18 552>
VStem: 40 128<154.057 364.729> 424 128<-192 322 429 466.527> 424 31<322 450>
LayerCount: 2
Fore
SplineSet
552 -192 m 5xb8
 424 -192 l 5
 424 429 l 5
 441 518 l 5
 552 518 l 5
 552 -192 l 5xb8
454 148 m 5
 439 37 360 -9 267.08203125 -9 c 4
 126.650390625 -9 40 96.072265625 40 262.529296875 c 4
 40 419.95703125 125.504882812 526 258.9921875 526 c 4
 372 526 449 450 455 322 c 5xd4
 424 256 l 5
 424 363.174804688 380.00390625 418 292.943359375 418 c 4xd8
 208.303710938 418 168 366.180664062 168 259.268554688 c 4
 168 150.956054688 209.366210938 99 296.612304688 99 c 4
 382.241210938 99 424 149.046875 424 256 c 5
 454 148 l 5
EndSplineSet
Validated: 5
EndChar

StartChar: r
Encoding: 114 114 49
Width: 415
VWidth: 1048
Flags: W
HStem: 0 21G<64 192> 415 112<239.273 372> 415 104<316.442 372>
VStem: 64 112<464.792 519> 168 24<339 427>
LayerCount: 2
Fore
SplineSet
315 527 m 1xc8
 346 527 361 525 387 519 c 5xa8
 372 415 l 1
 323 415 l 1
 221 415 192 357 192 271 c 1
 168 339 l 1
 168 427 206 527 315 527 c 1xc8
64 519 m 1xb0
 176 519 l 1xb0
 192 398 l 1
 192 0 l 1xa8
 64 0 l 1
 64 519 l 1xb0
EndSplineSet
Validated: 5
Colour: ff0000
EndChar

StartChar: s
Encoding: 115 115 50
Width: 487
VWidth: 1048
Flags: W
HStem: -8 100<159.129 312.845> 427 100<182.501 327.471>
VStem: 41 128<333.71 412.878> 326 129<107.203 189.743>
LayerCount: 2
Fore
SplineSet
239 527 m 1
 329 527 397 502 445 439 c 1
 361 374 l 1
 333 408 297 427 245 427 c 1
 202 427 169 407 169 374 c 1
 169 342 188.000976562 325.006835938 246 314 c 0
 291 305 l 1
 408 280.368164062 455 225 455 144 c 1
 455 54 376 -8 244 -8 c 1
 128 -8 74 26 32 82 c 5
 120 154 l 5
 145 110 192 92 247 92 c 1
 297 92 326 116 326 144 c 1
 326 175.051757812 309 198.838867188 253 209 c 1
 207 216 l 0
 89 236 42 294 41 374 c 1
 41 450 111 527 239 527 c 1
EndSplineSet
Validated: 1
EndChar

StartChar: t
Encoding: 116 116 51
Width: 403
VWidth: 1048
Flags: W
HStem: -8 100<257.57 357> 3 89<280.729 357> 415 104<28 361>
VStem: 117 128<104.433 635>
LayerCount: 2
Fore
SplineSet
279 -8 m 5xb0
 160 -8 117 55 117 158 c 5
 117 635 l 5
 245 686 l 5
 245 164 l 5
 245 104 269 92 317 92 c 5
 357 92 l 5xb0
 370 3 l 5x70
 345 -3 316 -8 279 -8 c 5xb0
28 415 m 5
 28 519 l 5
 361 519 l 5
 361 415 l 5
 28 415 l 5
EndSplineSet
Validated: 5
EndChar

StartChar: u
Encoding: 117 117 52
Width: 581
VWidth: 1048
Flags: W
HStem: -8 108<213.571 331.573> 0 21G<401.522 517> 499 20G<56 184 389 517>
VStem: 56 128<133.975 519> 389 128<50.784 92 145 519> 389 22<81 174.324>
AnchorPoint: "AccentCenter" 288 686 basechar 0
LayerCount: 2
Fore
SplineSet
517 0 m 1x78
 405 0 l 1
 389 92 l 1
 389 519 l 1
 517 519 l 1
 517 0 l 1x78
411 145 m 1xb4
 411 81 355 -8 250 -8 c 0
 135 -8 56 71 56 202 c 1
 56 519 l 1
 184 519 l 1
 184 212 l 2
 184 134 216 100 285 100 c 0
 354 100 389 159 389 235 c 5xb8
 411 145 l 1xb4
EndSplineSet
Validated: 5
EndChar

StartChar: v
Encoding: 118 118 53
Width: 596
VWidth: 1048
Flags: W
HStem: 0 21G<214.37 387.399> 499 20G<24 166.859 429.449 572>
LayerCount: 2
Fore
SplineSet
266 0 m 5
 436 519 l 1
 572 519 l 1
 380 0 l 1
 266 0 l 5
24 519 m 1
 160 519 l 1
 338 0 l 1
 222 0 l 1
 24 519 l 1
EndSplineSet
Validated: 5
Colour: ff0000
EndChar

StartChar: w
Encoding: 119 119 54
Width: 831
VWidth: 1048
Flags: W
HStem: 0 21G<161.798 333.74 491.568 663.434> 499 20G<32 157.74 337.106 494.586 671.952 799>
LayerCount: 2
Fore
SplineSet
609 0 m 1
 496 0 l 1
 381 519 l 1
 490 519 l 1
 609 0 l 1
799 519 m 1
 658 0 l 1
 546 0 l 1
 677 519 l 1
 799 519 l 1
215 0 m 1
 342 519 l 1
 452 519 l 1
 329 0 l 1
 215 0 l 1
32 519 m 1
 153 519 l 1
 276 0 l 1
 167 0 l 1
 32 519 l 1
EndSplineSet
Validated: 5
Colour: ff0000
EndChar

StartChar: x
Encoding: 120 120 55
Width: 610
VWidth: 1048
Flags: W
HStem: 0 21G<44 194.539 407.876 566> 499 20G<44 194.737 407.684 566>
LayerCount: 2
Fore
SplineSet
44 519 m 1
 182 519 l 1
 303 329 l 5
 420 519 l 1
 566 519 l 1
 394 260 l 1
 566 0 l 1
 420 0 l 1
 303 193 l 1
 182 0 l 1
 44 0 l 1
 217 260 l 1
 44 519 l 1
EndSplineSet
Validated: 1
Colour: ff0000
EndChar

StartChar: y
Encoding: 121 121 56
Width: 550
VWidth: 1048
Flags: W
HStem: 499 20G<16 168.071 378.857 526>
AnchorPoint: "AccentCenter" 271 686 basechar 0
LayerCount: 2
Fore
SplineSet
109 -192 m 0
 213 58 l 1
 252 93 l 1
 252 104 l 1
 286 239 l 1
 386 519 l 1
 526 519 l 1
 236 -192 l 1
 109 -192 l 0
16 519 m 1
 161 519 l 1
 260 239 l 1
 290 89 l 1
 228 15 l 1
 16 519 l 1
EndSplineSet
Validated: 5
Colour: ff0000
EndChar

StartChar: z
Encoding: 122 122 57
Width: 551
VWidth: 1048
Flags: W
HStem: 0 104<209 487> 415 104<67 481>
LayerCount: 2
Fore
SplineSet
336 415 m 5
 481 415 l 1
 209 104 l 1
 64 104 l 1
 336 415 l 5
64 104 m 1
 487 104 l 1
 487 0 l 1
 64 0 l 1
 64 104 l 1
67 519 m 1
 481 519 l 1
 481 415 l 1
 67 415 l 1
 67 519 l 1
EndSplineSet
Validated: 5
EndChar

StartChar: braceleft
Encoding: 123 123 58
Width: 400
VWidth: 1048
Flags: W
HStem: -66 104<275.627 352> 323 104<48 94.5857> 715 104<280.675 352>
VStem: 119 128<69.2187 299.471 446.392 683.297>
LayerCount: 2
Fore
SplineSet
119 620 m 5
 119 741 202 819 352 819 c 5
 352 715 l 5
 293 715 247 691 247 620 c 4
 247 513 l 5
 247 431 200 396 154 376 c 5
 200 362 247 323 247 239 c 5
 247 131 l 5
 247 60 293 38 352 38 c 5
 352 -66 l 5
 202 -66 119 0 119 131 c 4
 119 171 119 176 119 250 c 21
 119 288 80 323 48 323 c 13
 48 427 l 5
 81 427 119 452 119 498 c 13
 119 620 l 5
EndSplineSet
Validated: 1
EndChar

StartChar: bar
Encoding: 124 124 59
Width: 289
VWidth: 1048
Flags: W
VStem: 77 128<-66 819>
LayerCount: 2
Fore
SplineSet
77 819 m 1
 205 819 l 1
 205 -66 l 1
 77 -66 l 1
 77 819 l 1
EndSplineSet
Validated: 1
EndChar

StartChar: braceright
Encoding: 125 125 60
Width: 400
VWidth: 1048
Flags: W
HStem: -66 104<48 119.325> 326 104<305.414 352> 715 104<48 124.373>
VStem: 153 128<69.7034 306.608 453.529 683.781>
LayerCount: 2
Fore
SplineSet
281 133 m 1
 281 12 198 -66 48 -66 c 1
 48 38 l 1
 107 38 153 62 153 133 c 0
 153 240 l 1
 153 322 200 357 246 377 c 1
 200 391 153 430 153 514 c 1
 153 622 l 1
 153 693 107 715 48 715 c 1
 48 819 l 1
 198 819 281 753 281 622 c 0
 281 582 281 577 281 503 c 17
 281 465 320 430 352 430 c 9
 352 326 l 1
 319 326 281 301 281 255 c 9
 281 133 l 1
EndSplineSet
Validated: 1
EndChar

StartChar: asciitilde
Encoding: 126 126 61
Width: 669
VWidth: 1048
Flags: W
HStem: 225 66<378.297 484.61> 321 65<179 294.228>
LayerCount: 2
Fore
SplineSet
77 265 m 5
 77 265 117 386 249 386 c 4
 324 386 368 291 439 291 c 4
 497 291 525 384 525 384 c 5
 585 343 l 29
 585 343 537 225 431 225 c 4
 348 225 302 321 237 321 c 4
 162 321 128 225 128 225 c 5
 77 265 l 5
EndSplineSet
Validated: 1
EndChar

StartChar: exclam
Encoding: 33 33 62
Width: 274
VWidth: 1048
Flags: W
HStem: -8 146<85.5 188.5>
VStem: 64 146<13.5 116.5 348.424 757> 73 128<244 703.648>
LayerCount: 2
Fore
SplineSet
64 65 m 4xc0
 64 105 97 138 137 138 c 4
 177 138 210 105 210 65 c 4
 210 25 177 -8 137 -8 c 4
 97 -8 64 25 64 65 c 4xc0
65 757 m 1
 209 757 l 1
 201 244 l 1
 73 244 l 1xa0
 65 757 l 1
EndSplineSet
Validated: 1
EndChar

StartChar: quotedbl
Encoding: 34 34 63
Width: 423
VWidth: 1048
Flags: W
HStem: 520 280<48 176 247 375>
VStem: 48 128<520 800> 247 128<520 800>
LayerCount: 2
Fore
SplineSet
247 800 m 1
 375 800 l 1
 375 520 l 1
 247 520 l 1
 247 800 l 1
48 800 m 1
 176 800 l 1
 176 520 l 1
 48 520 l 1
 48 800 l 1
EndSplineSet
EndChar

StartChar: numbersign
Encoding: 35 35 64
Width: 758
VWidth: 1048
Flags: W
HStem: 0 21G<93 216.635 319 442.635> 193 104<77 657> 431 104<77 657>
LayerCount: 2
Fore
SplineSet
93 0 m 1
 297 724 l 1
 415 724 l 1
 211 0 l 1
 93 0 l 1
319 0 m 1
 523 724 l 1
 641 724 l 1
 437 0 l 1
 319 0 l 1
77 297 m 1
 657 297 l 1
 657 193 l 1
 77 193 l 1
 77 297 l 1
77 535 m 1
 657 535 l 1
 657 431 l 1
 77 431 l 1
 77 535 l 1
EndSplineSet
Validated: 5
EndChar

StartChar: dollar
Encoding: 36 36 65
Width: 585
VWidth: 1048
Flags: W
HStem: -8 108<188.059 406.312> 607 108<194.25 395.348>
VStem: 59 124<458.476 576.974> 234 128<-139 863> 417 128<136.823 259.57>
LayerCount: 2
Fore
SplineSet
302 715 m 1
 388 715 462 700 534 610 c 1
 446 539 l 1
 412 589 361 607 298 607 c 1
 225 607 184 574 183 527 c 1
 183 457 213 429 339 404 c 0
 470 378 545 311 545 191 c 1
 545 59 433 -8 289 -8 c 1
 179 -8 110 22 40 84 c 1
 118 174 l 1
 158 132 214 100 289 100 c 1
 361 100 416 129 417 189 c 1
 417 277 368 292 246 315 c 0
 111 340 59 426 59 527 c 1
 59 653 175 715 302 715 c 1
234 863 m 1
 362 863 l 1
 362 -139 l 1
 234 -139 l 1
 234 863 l 1
EndSplineSet
Validated: 5
EndChar

StartChar: percent
Encoding: 37 37 66
Width: 858
VWidth: 1048
Flags: W
HStem: -8 96<585.431 668.705> 0 21G<158 293.485> 232 96<585.803 668.074> 379 96<181.32 264.556> 619 96<181.8 264.043> 687 20G<553.487 688>
VStem: 64 104<486.873 606.647> 278 104<487.354 606.593> 468 104<99.8742 219.661> 682 104<100.036 219.346>
LayerCount: 2
Fore
SplineSet
626.578125 232 m 0xb3c0
 593.60546875 232 572 205.265447187 572 158.473197387 c 0
 572 112.452123781 592.8984375 88 626.622070312 88 c 0
 660.569335938 88 682 112.832395264 682 158.430132875 c 0
 682 204.89029836 659.750976562 232 626.578125 232 c 0xb3c0
626.977803444 328 m 24
 717.585982633 328 786 255.192335643 786 159.81335546 c 0
 786 64.2187150147 717.276252644 -8 627.369224146 -8 c 24
 536.955316945 -8 468 65.0353212004 468 160.465924452 c 0
 468 255.717691078 536.697115049 328 626.977803444 328 c 24
222.577148438 619 m 4x3bc0
 189.60546875 619 168 592.265699237 168 545.473598417 c 0
 168 499.452427486 188.899414062 475 222.622070312 475 c 0
 256.569335938 475 278 499.832689366 278 545.430473844 c 0
 278 591.890497382 255.750976562 619 222.577148438 619 c 4x3bc0
223 715 m 24
 313.360142514 715 382 642.659092817 382 547.457333213 c 0
 382 452.039610709 313.048373566 379 223 379 c 24
 132.951626434 379 64 452.039610709 64 547.457333213 c 0
 64 642.659092817 132.639857486 715 223 715 c 24
158 0 m 1x77c0
 565 707 l 1
 688 707 l 1
 282 0 l 1
 158 0 l 1x77c0
EndSplineSet
Validated: 1
EndChar

StartChar: ampersand
Encoding: 38 38 67
Width: 741
VWidth: 1048
Flags: W
HStem: -8 104<234.625 416.844> 0 21G<535.915 709> 611 104<295.165 424>
VStem: 56 128<146.586 306.591> 145 128<459.86 589.395>
LayerCount: 2
Fore
SplineSet
548 386 m 1xb0
 668 386 l 1
 643 282 l 1
 594 94 500 -8 315 -8 c 1
 162 -8 56 69 56 227 c 1
 56 333 126 410 220 447 c 1
 277 365 l 1
 223 339 184.913294798 302 184 227 c 1
 184 144 233 96 315 96 c 1
 428 96 484 145 528 312 c 1
 548 386 l 1xb0
357 715 m 1
 462 715 519.365234375 672 564 596 c 1
 462 542 l 1
 436 588 406 611 360 611 c 1
 299 611 273 578 273 531 c 1
 273 482 300 449 342 401 c 1
 709 0 l 1
 554 0 l 1
 233 355 l 1
 192 401 145 465 145 550 c 1x68
 145 634 218 715 357 715 c 1
EndSplineSet
Validated: 5
Colour: ff0000
EndChar

StartChar: quotesingle
Encoding: 39 39 68
Width: 180
VWidth: 1048
Flags: W
HStem: 527 241<48 132>
VStem: 48 84<527 634.968>
LayerCount: 2
Fore
SplineSet
148 768 m 5
 132 527 l 5
 48 527 l 1
 32 768 l 1
 148 768 l 5
EndSplineSet
Validated: 1
EndChar

StartChar: parenleft
Encoding: 40 40 69
Width: 400
VWidth: 1048
Flags: W
VStem: 64 125<198.577 542.528>
LayerCount: 2
Fore
SplineSet
236 800 m 1
 368 800 l 5
 285 739 189 598 189 368 c 4
 189 139 293 7 368 -59 c 5
 231 -59 l 1
 126 26 64 191 64 368 c 0
 64 563 124 709 236 800 c 1
EndSplineSet
Validated: 1
EndChar

StartChar: parenright
Encoding: 41 41 70
Width: 402
VWidth: 1048
Flags: W
VStem: 211 127<198.472 542.423>
LayerCount: 2
Fore
SplineSet
166 -59 m 5
 32 -59 l 1
 115 2 211 143 211 373 c 0
 211 602 107 734 32 800 c 1
 171 800 l 5
 276 715 338 550 338 373 c 4
 338 178 278 32 166 -59 c 5
EndSplineSet
Validated: 1
EndChar

StartChar: asterisk
Encoding: 42 42 71
Width: 550
VWidth: 1048
Flags: W
HStem: 687 20G<89.9683 157.875 368.75 436.349>
VStem: 230 66<657.338 806>
LayerCount: 2
Fore
SplineSet
129 488 m 1
 188 573 l 1
 247 633 l 1
 280 608 l 1
 243 535 l 1
 182 451 l 1
 129 488 l 1
397 488 m 1
 344 451 l 1
 284 535 l 1
 247 608 l 1
 280 633 l 1
 338 573 l 1
 397 488 l 1
96 707 m 1
 195 675 l 1
 269 638 l 1
 257 599 l 1
 175 612 l 1
 77 644 l 1
 96 707 l 1
430 707 m 1
 450 644 l 1
 351 612 l 1
 269 599 l 1
 257 638 l 1
 332 675 l 1
 430 707 l 1
230 806 m 1
 296 806 l 1
 296 702 l 1
 284 621 l 1
 243 621 l 1
 230 702 l 1
 230 806 l 1
EndSplineSet
Validated: 5
EndChar

StartChar: plus
Encoding: 43 43 72
Width: 613
VWidth: 1048
Flags: W
HStem: 215 104<77 513>
VStem: 231 128<54 480>
LayerCount: 2
Fore
SplineSet
231 480 m 1
 359 480 l 1
 359 54 l 1
 231 54 l 1
 231 480 l 1
77 319 m 1
 513 319 l 5
 513 215 l 5
 77 215 l 1
 77 319 l 1
EndSplineSet
Validated: 5
EndChar

StartChar: comma
Encoding: 44 44 73
Width: 268
VWidth: 1048
Flags: W
HStem: -144 272<-90 -42>
VStem: 24 162<-8 128>
LayerCount: 2
Fore
SplineSet
72 -8 m 5
 24 -8 l 5
 24 128 l 5
 186 128 l 5
 186 -8 l 5
 120 -144 l 5
 24 -144 l 5
 72 -8 l 5
EndSplineSet
Validated: 1
EndChar

StartChar: hyphen
Encoding: 45 45 74
Width: 489
VWidth: 1048
Flags: W
HStem: 215 104<77 414>
VStem: 77 337<215 319>
LayerCount: 2
Fore
SplineSet
77 319 m 1
 414 319 l 5
 414 215 l 5
 77 215 l 1
 77 319 l 1
EndSplineSet
Validated: 1
EndChar

StartChar: period
Encoding: 46 46 75
Width: 249
VWidth: 1048
Flags: W
HStem: -8 146<71.5 174.5>
VStem: 50 146<13.5 116.5>
LayerCount: 2
Fore
SplineSet
50 65 m 4
 50 105 83 138 123 138 c 4
 163 138 196 105 196 65 c 4
 196 25 163 -8 123 -8 c 4
 83 -8 50 25 50 65 c 4
EndSplineSet
Validated: 1
EndChar

StartChar: slash
Encoding: 47 47 76
Width: 474
VWidth: 1048
Flags: W
HStem: 748 20G<333.507 474>
LayerCount: 2
Fore
SplineSet
1 -35 m 1
 342 768 l 1
 474 768 l 1
 133 -35 l 1
 1 -35 l 1
EndSplineSet
Validated: 1
EndChar

StartChar: zero
Encoding: 48 48 77
Width: 594
VWidth: 1048
Flags: W
HStem: -7 108<224.615 362.339> 607 108<224.621 364.626>
VStem: 36 128<188.284 526.718> 431 128<194.912 521.887>
LayerCount: 2
Fore
SplineSet
164 358 m 0
 164 159 211 101 295 101 c 0
 379 101 431 167 431 359 c 0
 431 548 380 607 296 607 c 4
 212 607 164 551 164 358 c 0
36 357 m 0
 36 589 131 715 296 715 c 0
 462 715 559 586 559 359 c 0
 559 130 461 -7 295 -7 c 0
 135 -7 36 121 36 357 c 0
EndSplineSet
Validated: 1
EndChar

StartChar: one
Encoding: 49 49 78
Width: 594
VWidth: 1048
Flags: W
HStem: 0 108<68 522> 687 20G<199.374 365>
VStem: 237 128<0 584>
LayerCount: 2
Fore
SplineSet
68 108 m 5
 522 108 l 5
 522 0 l 1
 68 0 l 1
 68 108 l 5
237 0 m 1
 237 584 l 1
 92 480 l 1
 35 568 l 1
 227 707 l 1
 365 707 l 1
 365 0 l 1
 237 0 l 1
EndSplineSet
Validated: 5
Colour: ff0000
EndChar

StartChar: two
Encoding: 50 50 79
Width: 594
VWidth: 1048
Flags: W
HStem: 0 108<218 538> 519 21G<126.889 173> 611 104<213.012 357.454>
VStem: 394 128<422.817 573.691>
LayerCount: 2
Fore
SplineSet
81 121 m 1
 291 326 l 0
 348 384 394 431 394 503 c 0
 394 574 349 611 290 611 c 0
 214 611 188 571 158 519 c 1
 60 582 l 1
 101 668 185 715 296 715 c 0
 432 715 522 640 522 502 c 0
 522 409 450 332 377 260 c 0
 218 108 l 5
 538 108 l 1
 538 0 l 1
 81 0 l 1
 81 121 l 1
EndSplineSet
Validated: 1
EndChar

StartChar: three
Encoding: 51 51 80
Width: 594
VWidth: 1048
Flags: W
HStem: -8 108<183.359 362.785> 316 108<183 338.47> 607 108<182.12 341.802>
VStem: 371 128<454.408 578.818> 402 128<138.59 273.365>
LayerCount: 2
Fore
SplineSet
44 580 m 1xf0
 83.4285714286 672 163 715 272 715 c 1
 416 715 499 644 499 535 c 1xf0
 499 450 457 404 399 374 c 1
 467 359 530 301 530 204 c 1
 530 69 436 -8 284 -8 c 1
 165 -8 61 34 24 143 c 1
 138 190 l 1
 151 130 200 100 276 100 c 1
 366 100 402 145 402 206 c 1xe8
 401.912195122 281 350 316 259 316 c 1
 183 316 l 25
 183 424 l 29
 262 424 l 5
 325 424 371 452 371 519 c 1
 371 581 327 607 264 607 c 1
 201 607 163.896484375 584 147 535 c 1
 44 580 l 1xf0
EndSplineSet
Validated: 1
EndChar

StartChar: four
Encoding: 52 52 81
Width: 594
VWidth: 1048
Flags: W
HStem: 0 21G<336 464> 148 108<162 556> 687 20G<322.829 464>
VStem: 336 128<0 707>
LayerCount: 2
Fore
SplineSet
336 707 m 1
 422 635 l 5
 162 256 l 5
 39 256 l 1
 336 707 l 1
39 256 m 1
 556 256 l 1
 556 148 l 1
 39 148 l 1
 39 256 l 1
336 707 m 1
 464 707 l 1
 464 0 l 1
 336 0 l 1
 336 707 l 1
EndSplineSet
Validated: 5
EndChar

StartChar: five
Encoding: 53 53 82
Width: 594
VWidth: 1048
Flags: W
HStem: -8 108<184.43 357.627> 353 108<203.288 361.485> 599 108<213 486>
VStem: 411 128<151.337 305.088>
LayerCount: 2
Fore
SplineSet
305 461 m 1
 429 461 539 382 539 225 c 0
 539 88 431 -8 276 -8 c 1
 148 -8 79.099609375 38 35 101 c 1
 128 175 l 1
 162 124 211 100 270 100 c 1
 355 100 411 145 411 224 c 0
 411 310 359 353 280 353 c 1
 234 353 199 336 187 321 c 1
 160 409 l 1
 183 434 240 461 305 461 c 1
99 707 m 1
 213 707 l 1
 187 321 l 1
 73 321 l 1
 99 707 l 1
209 707 m 1
 486 707 l 1
 486 599 l 1
 152 599 l 1
 209 707 l 1
EndSplineSet
Validated: 5
EndChar

StartChar: six
Encoding: 54 54 83
Width: 594
VWidth: 1048
Flags: W
HStem: -8 108<228.451 377.606> 391 104<244.088 377.368> 687 20G<280.5 467>
VStem: 46 128<156.975 333.11> 429 128<154.753 335.209>
LayerCount: 2
Fore
SplineSet
303 391 m 4
 224 391 174 333.357421875 174 250 c 0
 174 154 223.608398438 100 303 100 c 0
 382.995117188 100 429 154 429 246 c 0
 429 336 383.475585938 391 303 391 c 4
467 707 m 1
 330 614 246.922851562 512 184 417 c 1
 214 467 273 495 330 495 c 0
 458 495 557 403 557 246 c 0
 557 83 444 -8 300 -8 c 0
 139 -8 46 92 46 253 c 0
 46 341 55 428 149 556 c 0
 200.862217571 626.620892012 258 676 303 707 c 1
 467 707 l 1
EndSplineSet
Validated: 5
EndChar

StartChar: seven
Encoding: 55 55 84
Width: 594
VWidth: 1048
Flags: W
HStem: 0 21G<161 297.114> 481 118<46 174> 599 108<46 532>
VStem: 46 128<481 599>
LayerCount: 2
Fore
SplineSet
46 599 m 5xd0
 174 599 l 5
 174 481 l 1
 46 481 l 1
 46 599 l 5xd0
46 707 m 1xb0
 532 707 l 1
 532 599 l 5xb0
 46 599 l 5xd0
 46 707 l 1xb0
402 599 m 5
 532 599 l 5
 289 0 l 1
 161 0 l 1
 402 599 l 5
EndSplineSet
Validated: 5
Colour: ff0000
EndChar

StartChar: eight
Encoding: 56 56 85
Width: 594
VWidth: 1048
Flags: W
HStem: -7 108<217.037 381.956> 312 108<229.97 362.816> 337 60<168.759 423.819> 606 108<225.576 367.701>
VStem: 48 128<140.715 271.848> 66 128<451.092 576.384> 400 128<451.148 576.147> 418 128<136.26 270.422>
LayerCount: 2
Fore
SplineSet
296.575195312 312 m 0xd9
 220.909179688 312 176 271.18359375 176 207.978515625 c 0
 176 143.788085938 218.303710938 101 299.133789062 101 c 4
 376.094726562 101 418 138 418 199.91796875 c 0
 418 264 377.684570312 312 296.575195312 312 c 0xd9
297.01953125 606 m 0
 230.532226562 606 194 570.799371567 194 514.612304688 c 0
 194 458.153087279 229.969726562 420 295.982421875 420 c 0
 362.81640625 420 400 458 400 514.583758697 c 0xd6
 400 570 363.310546875 606 297.01953125 606 c 0
48 189.835191579 m 0xb9
 48 316.888369679 153.270507812 397 296.143554688 397 c 0
 439.364257812 397 546 316.440312702 546 189.799845427 c 0
 546 69.5417863047 449.841977004 -7 296.207108985 -7 c 0
 142.936711274 -7 48 69.1790546113 48 189.835191579 c 0xb9
66 532.1252708 m 0xb6
 66 641.643725957 152.227684093 714 296.167229817 714 c 0
 440.521084887 714 528 641.226592169 528 532.101576904 c 0
 528 413.014326982 423.819335938 337 296.127929688 337 c 0
 168.758789062 337 66 412.568563904 66 532.1252708 c 0xb6
EndSplineSet
Validated: 5
EndChar

StartChar: nine
Encoding: 57 57 86
Width: 594
VWidth: 1048
Flags: W
HStem: 0 21G<125 329.5> 212 104<227.513 349.996> 607 108<222.651 376.643>
VStem: 43 128<375.593 552.041> 426 128<373.723 552.007>
LayerCount: 2
Fore
SplineSet
300 316 m 0
 372 316 426 370 426 460 c 0
 426 566.9765625 372 607 300 607 c 4
 228 607 171 563.166992188 171 464 c 0
 171 367.5625 228 316 300 316 c 0
125 0 m 1
 262 88 330 168 404 282 c 1
 355 223 309 212 262 212 c 0
 136 212 43 326 43 461 c 0
 43 624 156 715 300 715 c 0
 461 715 554 615 554 454 c 0
 554 366 539.7823837 267 449 151 c 0
 395.000082999 81.9999350445 362 49 297 0 c 1
 125 0 l 1
EndSplineSet
Validated: 1
EndChar

StartChar: colon
Encoding: 58 58 87
Width: 338
VWidth: 1048
Flags: W
HStem: -8 146<117.5 220.5> 381 146<117.5 220.5>
VStem: 96 146<13.5 116.5 402.5 505.5>
LayerCount: 2
Fore
SplineSet
96 454 m 0
 96 494 129 527 169 527 c 0
 209 527 242 494 242 454 c 0
 242 414 209 381 169 381 c 0
 129 381 96 414 96 454 c 0
96 65 m 0
 96 105 129 138 169 138 c 0
 209 138 242 105 242 65 c 0
 242 25 209 -8 169 -8 c 0
 129 -8 96 25 96 65 c 0
EndSplineSet
Validated: 1
EndChar

StartChar: semicolon
Encoding: 59 59 88
Width: 388
VWidth: 1048
Flags: W
HStem: 406 121<117.453 213.14>
VStem: 105 121<418.839 513.777> 128 72<-8.02966 101.697>
LayerCount: 2
Fore
SplineSet
200 101 m 5xa0
 188 -28 139 -138 49 -197 c 5
 12 -154 l 5
 81 -94 124 4 128 108 c 5
 200 101 l 5xa0
105 466 m 4xc0
 105 499 128 527 165 527 c 4
 202 527 226 499 226 466 c 4
 226 433 202 406 165 406 c 4
 128 406 105 433 105 466 c 4xc0
EndSplineSet
Validated: 1
EndChar

StartChar: less
Encoding: 60 60 89
Width: 548
VWidth: 1048
Flags: W
LayerCount: 2
Fore
SplineSet
48 328 m 1
 464 504 l 1
 492 413 l 1
 48 229 l 1
 48 328 l 1
48 328 m 5
 492 144 l 5
 464 53 l 1
 48 229 l 1
 48 328 l 5
EndSplineSet
Validated: 5
EndChar

StartChar: equal
Encoding: 61 61 90
Width: 597
VWidth: 1048
Flags: W
HStem: 120 108.011<77 497> 330 108<77 497>
LayerCount: 2
Fore
SplineSet
77 438 m 1
 497 438 l 1
 497 330 l 1
 77 330 l 1
 77 438 l 1
77 228.010742188 m 1
 497 228.010742188 l 1
 497 120 l 1
 77 120 l 1
 77 228.010742188 l 1
EndSplineSet
EndChar

StartChar: greater
Encoding: 62 62 91
Width: 548
VWidth: 1048
Flags: W
LayerCount: 2
Fore
SplineSet
500 328 m 1
 500 229 l 1
 56 413 l 1
 84 504 l 1
 500 328 l 1
500 328 m 1
 500 229 l 1
 84 53 l 1
 56 144 l 1
 500 328 l 1
EndSplineSet
Validated: 5
EndChar

StartChar: question
Encoding: 63 63 92
Width: 541
VWidth: 1048
Flags: W
HStem: -8 146<202.5 305.5> 624 108<161.23 309.581>
VStem: 181 146<13.5 116.5> 181 120<200.677 307.608> 342 128<455.163 594.152>
LayerCount: 2
Fore
SplineSet
181 65 m 0xe8
 181 105 214 138 254 138 c 0
 294 138 327 105 327 65 c 0
 327 25 294 -8 254 -8 c 0
 214 -8 181 25 181 65 c 0xe8
30 612 m 1
 64 676 130 732 251 732 c 1
 380 732 470 664 470 541 c 1
 470 455 433 398 369 353 c 0
 315.43359375 315.3359375 301 275 301 237 c 1
 301 224 303 215 306 201 c 1
 187 184 l 1
 183 206 181 221 181 239 c 1xd8
 181 314 206.619702563 360.859409385 264 402 c 0
 317 440 342 471 342 533 c 1
 342 594 298 624 238 624 c 1
 184 624 137 598 118 550 c 1
 30 612 l 1
EndSplineSet
Validated: 1
EndChar

StartChar: at
Encoding: 64 64 93
Width: 998
Flags: W
HStem: -96 108<383.544 661.773> 131 104<417.868 528.436> 473 104<433.746 556.537> 692 108<373.276 623.379>
VStem: 48 128<228.95 490.314> 260.282 130.394<260.895 423.72> 806 128<262.833 508.468>
LayerCount: 2
Fore
SplineSet
695 46 m 1
 695 -62 l 1
 630 -88 566 -96 497 -96 c 1
 248 -96 48 54 48 364 c 1
 48 620 252 800 494 800 c 1
 760 800 934 620 934 395 c 1
 934 301 903 211 857 145 c 1
 722 130 l 1
 581 228 l 1
 669 308 l 1
 771 239 l 1
 796 276 806 338 806 383 c 1
 806 571 687 692 494 692 c 1
 308 692 176 568 176 360 c 1
 176 156 305 12 501 12 c 1
 572 12 630 16 695 46 c 1
618 567 m 1
 718 567 l 1
 685 245 l 1
 565 242 l 1
 583 498 l 1
 618 567 l 1
666 371 m 1
 648 219 544 131 447 131 c 0
 340.864134874 131 260.281740899 200.846154482 260.281740899 324.815914067 c 0
 260.281740899 335.169479923 260.843808495 345.90056155 262 357 c 0
 275 482 377 577 492 577 c 0
 561.87595371 577 621 519 633 462 c 1
 666 371 l 1
496 473 m 0
 445 473 400 438 392 359 c 0
 391.106191 349.962597889 390.675938084 341.497243713 390.675938084 333.579449846 c 0
 390.675938084 261.770876216 426.064917666 235 472 235 c 0
 525 235 563 272 572 360 c 0
 577 430 l 1
 554 461 522 473 496 473 c 0
EndSplineSet
Validated: 5
EndChar

StartChar: gravecomb
Encoding: 768 768 95
Width: 0
VWidth: 1048
Flags: W
HStem: 737 193
VStem: -144 280
AnchorPoint: "AccentCenter" 0 840 mark 0
LayerCount: 2
Fore
SplineSet
99 737 m 1
 -144 814 l 5
 -85 930 l 1
 136 816 l 1
 99 737 l 1
EndSplineSet
Validated: 1
EndChar

StartChar: acutecomb
Encoding: 769 769 96
Width: 0
VWidth: 1048
Flags: W
HStem: 737 193
VStem: -144 280
AnchorPoint: "AccentCenter" 0 840 mark 0
LayerCount: 2
Fore
SplineSet
-107 737 m 1
 -144 816 l 1
 77 930 l 1
 136 814 l 5
 -107 737 l 1
EndSplineSet
Validated: 1
EndChar

StartChar: uni0302
Encoding: 770 770 97
Width: 0
VWidth: 1048
Flags: W
HStem: 729 201
AnchorPoint: "AccentCenter" 0 840 mark 0
LayerCount: 2
Fore
SplineSet
-188 800 m 25
 -33 930 l 1
 33 930 l 1
 188 800 l 17
 131 729 l 5
 0 835 l 25
 -139 729 l 1
 -188 800 l 25
EndSplineSet
Validated: 1
EndChar

StartChar: tildecomb
Encoding: 771 771 98
Width: 0
VWidth: 1048
Flags: W
HStem: 752 94<22.3412 109.679> 819 94<-111.413 -22.9233>
AnchorPoint: "AccentCenter" 0 838 mark 0
LayerCount: 2
Fore
SplineSet
-219 780 m 5x40
 -207 853 -164 913 -80.6953125 913 c 0x40
 -2 913 22 846 71.5107421875 846 c 0
 106 846 117.25 872 121 905 c 1
 219 889 l 1
 202 795 157 752 76.3642578125 752 c 0x80
 -2 752 -21 819 -70.2353515625 819 c 4
 -103 819 -119 799 -124 760 c 5
 -219 780 l 5x40
EndSplineSet
Validated: 1
EndChar

StartChar: uni030A
Encoding: 778 778 100
Width: 0
VWidth: 1048
Flags: W
HStem: 730 70<-35.3046 35.3046> 880 70<-35.3046 35.3046>
VStem: -110 71<803.541 876.459> 39 71<803.541 876.459>
AnchorPoint: "Ring" 0 840 mark 0
LayerCount: 2
Fore
SplineSet
-39 840 m 0
 -39 816 -22 800 0 800 c 4
 22 800 39 816 39 840 c 0
 39 864 22 880 0 880 c 0
 -22 880 -39 864 -39 840 c 0
-110 840 m 0
 -110 904 -61 950 0 950 c 0
 61 950 110 904 110 840 c 0
 110 776 61 730 0 730 c 0
 -61 730 -110 776 -110 840 c 0
EndSplineSet
Validated: 1
EndChar

StartChar: uni0308
Encoding: 776 776 101
Width: 0
VWidth: 1048
Flags: W
HStem: 788 138<-162.908 -63.0921 63.0921 162.908>
VStem: -182 138<807.092 906.908> 44 138<807.092 906.908>
AnchorPoint: "AccentCenter" 0 860 mark 0
LayerCount: 2
Fore
SplineSet
44 857 m 4
 44 895 75 926 113 926 c 4
 151 926 182 895 182 857 c 4
 182 819 151 788 113 788 c 4
 75 788 44 819 44 857 c 4
-182 857 m 0
 -182 895 -151 926 -113 926 c 0
 -75 926 -44 895 -44 857 c 0
 -44 819 -75 788 -113 788 c 0
 -151 788 -182 819 -182 857 c 0
EndSplineSet
Validated: 1
EndChar

StartChar: dotlessi
Encoding: 305 305 116
Width: 303
VWidth: 1048
Flags: W
HStem: 0 21G<114 242> 415 104<16 170>
VStem: 114 128<0 415> 114 56<415 519>
AnchorPoint: "AccentCenter" 161 686 basechar 0
LayerCount: 2
Fore
SplineSet
16 519 m 1xd0
 170 519 l 1
 170 415 l 1
 16 415 l 1
 16 519 l 1xd0
114 0 m 1xe0
 114 519 l 1xd0
 242 519 l 1
 242 0 l 1
 114 0 l 1xe0
EndSplineSet
Validated: 5
EndChar

StartChar: sterling
Encoding: 163 163 153
Width: 628
Flags: W
HStem: 0 108<59 574> 291 108<24 439> 607 108<271.318 432.961>
VStem: 97 128<404.65 562.633> 168 128<187.801 289.629>
LayerCount: 2
Back
SplineSet
36 64 m 1
 571 64 l 1
 571 0 l 1
 36 0 l 1
 36 64 l 1
EndSplineSet
Fore
SplineSet
24 399 m 1xe0
 439 399 l 1
 439 291 l 1
 24 291 l 1
 24 399 l 1xe0
59 108 m 1
 574 108 l 5
 574 0 l 5
 59 0 l 1
 59 108 l 1
97 504 m 1xf0
 97 620 195 715 355 715 c 0
 486 715 554 648 596 578 c 1
 497 515 l 0
 471 570 415 607 352 607 c 1
 281 607 225 569 225 498 c 0xf0
 225 388 296 363 296 257 c 0
 296 175 246 126 208 108 c 1
 59 108 l 1
 59 112 l 1
 59 112 168 156 168 267 c 0xe8
 168 353 97 397 97 504 c 1xf0
EndSplineSet
Validated: 5
EndChar

StartChar: AE
Encoding: 198 198 154
Width: 999
VWidth: 1048
Flags: W
HStem: 0 104<602 943> 153 104<235 496> 316 104<535 865> 603 104<602 943>
VStem: 474 22<153 257> 535 67<316 420>
AnchorPoint: "AccentCenter" 617 880 basechar 0
LayerCount: 2
Fore
SplineSet
235 257 m 1
 496 257 l 1
 496 153 l 1
 235 153 l 1
 235 257 l 1
535 420 m 1
 865 420 l 1
 865 316 l 1
 535 316 l 1
 535 420 l 1
602 104 m 1
 943 104 l 1
 943 0 l 1
 602 0 l 1
 602 104 l 1
602 707 m 1
 943 707 l 1
 943 603 l 1
 602 603 l 1
 602 707 l 1
474 707 m 1
 602 707 l 1
 602 0 l 1
 474 0 l 1
 474 707 l 1
390 707 m 1
 474 707 l 1
 480 622 l 1
 170 0 l 1
 40 0 l 1
 390 707 l 1
EndSplineSet
Validated: 5
EndChar

StartChar: Euro
Encoding: 8364 8364 155
Width: 733
Flags: W
HStem: -8 64<339.948 538.613> 235 64<32 423> 425 64<32 487> 651 64<334.99 530.978>
VStem: 134 72<258.49 422.227>
LayerCount: 2
Back
Fore
SplineSet
32 299 m 1
 444 299 l 1
 423 235 l 1
 32 235 l 1
 32 299 l 1
32 489 m 1
 509 489 l 1
 487 425 l 1
 32 425 l 1
 32 489 l 1
436 715 m 1
 562 715 634 644 666 590 c 1
 609 557 l 1
 564 627 499 651 437 651 c 1
 291 651 206 542 206 360 c 1
 206 194 277 56 435 56 c 1
 532 56 582 94 629 162 c 1
 681 118 l 1
 628 46 564 -8 434 -8 c 1
 240 -8 134 157 134 362 c 0
 134 574 261 715 436 715 c 1
EndSplineSet
Validated: 5
EndChar

StartChar: yen
Encoding: 165 165 156
Width: 698
VWidth: 1048
Flags: W
HStem: 0 21G<287 415> 83 108<105 594> 272 108<105 594> 272 3<287 415> 687 20G<48 200.138 498 650>
VStem: 287 128<0 275>
AnchorPoint: "AccentCenter" 320 880 basechar 0
LayerCount: 2
Fore
SplineSet
105 191 m 1xcc
 594 191 l 1
 594 83 l 1
 105 83 l 1
 105 191 l 1xcc
105 380 m 1xec
 594 380 l 1
 594 272 l 1
 105 272 l 1
 105 380 l 1xec
287 275 m 1xdc
 415 275 l 1
 415 0 l 1
 287 0 l 1
 287 275 l 1xdc
292 275 m 1
 508 707 l 1
 650 707 l 1
 410 263 l 1
 292 275 l 1
48 707 m 1
 190 709 l 1
 410 275 l 1
 292 263 l 1
 48 707 l 1
EndSplineSet
Validated: 5
EndChar

StartChar: ae
Encoding: 230 230 157
Width: 883
Flags: W
HStem: -8 104<181.623 323.572 546.216 716.508> 219 92<183.095 360 496 715> 424 103<176.773 332.063 532.68 681.598>
VStem: 40 128<112.27 203.375> 360 136<146 219 311 393> 368 120<160 424> 715 128<311 385.822>
AnchorPoint: "AccentCenter" 441 686 basechar 0
LayerCount: 2
Fore
SplineSet
168 154 m 0xfa
 168 113 203 96 250 96 c 0
 329 96 360 146 360 207 c 2
 360 219 l 1
 260 219 l 2
 192 219 168 200 168 154 c 0xfa
435 128 m 1
 401 42 344 -8 237 -8 c 0
 110 -8 40 53 40 148 c 0
 40 253 109 311 249 311 c 2
 360 311 l 1
 360 334 l 2xfa
 360 401 314 424 258 424 c 0
 198 424 156 397 140 362 c 1
 55 415 l 1
 97 488 166 527 257 527 c 0
 388 527 488 462 488 300 c 2
 488 220 l 1
 488 160 l 1xf6
 402 160 l 1
 435 128 l 1
613 427 m 1
 549 427 496 393 496 311 c 1
 715 311 l 1
 715 320 l 1
 715 378 678 427 613 427 c 1
615 527 m 0
 738 527 843 436 843 296 c 1
 843 269 835 236 822 219 c 1
 496 219 l 1xfa
 502 145 548 92 624 92 c 0
 680 92 722 111 754 153 c 1
 830 84 l 1
 773 18 696 -8 623 -8 c 0
 484 -8 368 83 368 261 c 0xf6
 368 424 471 527 615 527 c 0
EndSplineSet
Validated: 5
EndChar

StartChar: eth
Encoding: 240 240 158
Width: 588
Flags: W
HStem: -8 100<227.712 362.866> 427 100<223.796 351.828> 687 28G<138 360.5 396.931 482>
VStem: 40 128<157.335 365.332> 420 128<155.474 364.105>
LayerCount: 2
Fore
SplineSet
137.466796875 625.999023438 m 1
 482 707 l 1
 482 622 l 1
 137.465820312 538.999023438 l 1
 137.466796875 625.999023438 l 1
168 260.116485635 m 0
 168 161.277016042 213.501647024 92 294.579347691 92 c 0
 374.79201223 92 420 160 420 253.488879763 c 0
 420 375 369.890903419 427 289.437470252 427 c 0
 211.848463142 427 168 363.08704479 168 260.116485635 c 0
303 715 m 1
 418 641 548 495 548 259 c 1
 548 99 442 -8 296 -8 c 1
 145 -8 40 87 40 274 c 1
 40 412 135 527 268 527 c 1
 316 527 357 511 389 472 c 1
 328 577 223 673 138 715 c 1
 303 715 l 1
EndSplineSet
Validated: 5
EndChar

StartChar: thorn
Encoding: 254 254 159
Width: 629
VWidth: 1048
Flags: W
HStem: -8 104<261.087 401.115> 423 104<258.267 401.768> 695 20G<64 192>
VStem: 64 128<-192 715> 169 23<71 196> 179 13<310.45 470> 461 128<158.364 360.193>
LayerCount: 2
Fore
SplineSet
179 370 m 1xe6
 179 470 259 527 348 527 c 0
 492.349609375 527 589 421.927734375 589 265 c 0
 589 98.04296875 490.495117188 -8 348 -8 c 0
 244 -8 169 71 169 196 c 1xea
 192 262 l 1
 192 145 246.254882812 96 324 96 c 0
 405.043945312 96 461 146 461 262 c 0
 461 370 406.247070312 423 325 423 c 0
 242.745117188 423 192 377 192 262 c 1xf2
 179 370 l 1xe6
64 715 m 1xf2
 192 715 l 1
 192 -192 l 1
 64 -192 l 1
 64 715 l 1xf2
EndSplineSet
Validated: 5
EndChar

StartChar: oslash
Encoding: 248 248 160
Width: 592
VWidth: 1048
Flags: W
HStem: -8 108<230.975 370.301> 0 21G<40 186.644> 419 108<224.443 363.079> 499 20G<405.356 552>
VStem: 40 128<151.669 358.049> 424 128<158.389 363.934>
AnchorPoint: "AccentCenter" 293 686 basechar 0
LayerCount: 2
Fore
SplineSet
420 519 m 5x5c
 552 519 l 1
 172 0 l 1
 40 0 l 1
 420 519 l 5x5c
168 254 m 0
 168 149.905273438 214.3984375 100 294 100 c 0
 376.46875 100 424 153.375 424 258 c 0
 424 363.234375 375.510742188 419 294 419 c 0xac
 215.322265625 419 168 358.701171875 168 254 c 0
40 259 m 0
 40 422.979492188 134.952148438 527 294 527 c 0
 450.436523438 527 552 419.825195312 552 261 c 0
 552 101.354492188 449.491210938 -8 294 -8 c 0
 140.270507812 -8 40 98.7158203125 40 259 c 0
EndSplineSet
Validated: 5
EndChar

StartChar: currency
Encoding: 164 164 161
Width: 654
Flags: W
HStem: -7 21G<82.2985 122 532 571.701> 22 108<257.751 396.249> 389 108<257.751 396.249> 508 20G<82.2985 122 532 571.701>
VStem: 95 108<188.187 330.925> 451 108<188.528 331.267>
LayerCount: 2
Fore
SplineSet
499 179 m 1
 618 60 l 1
 552 -7 l 1
 433 112 l 1
 499 179 l 1
221 112 m 1
 102 -7 l 1
 36 60 l 5
 155 178 l 5
 221 112 l 1
155 342 m 1
 36 461 l 1
 102 528 l 1
 221 409 l 1
 155 342 l 1
432 408 m 1
 552 528 l 1
 618 461 l 1
 498 342 l 1
 432 408 l 1
203 259 m 0
 203 188 258 130 327 130 c 0
 396 130 451 189 451 260 c 0
 451 331 396 389 327 389 c 0
 258 389 203 330 203 259 c 0
95 260 m 0
 95 391 199 497 327 497 c 0
 455 497 559 391 559 260 c 0
 559 129 455 22 327 22 c 0
 199 22 95 129 95 260 c 0
EndSplineSet
Validated: 5
EndChar

StartChar: uni0327
Encoding: 807 807 163
Width: 0
Flags: W
HStem: -224 67<-59.7452 32.7121> -111 111<-70 -21> -96 61<-11.8817 32.6032>
VStem: -70 73<-21.9819 0> 34 72<-154.419 -96.802>
LayerCount: 2
Fore
SplineSet
-70 0 m 1xd8
 3 0 l 1xd8
 -12 -46 l 1
 -12 -46 -1 -35 26 -35 c 0
 68 -35 106 -72 106 -125 c 0
 106 -184 58 -224 -2 -224 c 0
 -66 -224 -92 -186 -92 -186 c 1
 -45 -139 l 1
 -37 -149 -25 -157 -2 -157 c 0
 21 -157 34 -144 34 -125 c 0
 34 -106 19 -96 6 -96 c 0xb8
 -15 -96 -21 -111 -21 -111 c 1
 -87 -111 l 25
 -70 0 l 1xd8
EndSplineSet
EndChar

StartChar: Thorn
Encoding: 222 222 164
Width: 540
Flags: WO
HStem: 0 21G<64 192> 151 108.011<192 341.679> 460 108<192 341.021> 687 20G<64 192>
VStem: 64 128<0 151 259.011 460 568 707> 372 128<290.892 427.598>
LayerCount: 2
Fore
SplineSet
192 568 m 1
 287 568 l 1
 407 568 500 490 500 356 c 0
 500 236 404 151 281 151 c 1
 192 151 l 1
 192 259.010742188 l 1
 273 259.010742188 l 1
 336 259.010742188 372 294 372 357 c 0
 372 423 336 460 279 460 c 1
 192 460 l 1
 192 568 l 1
64 707 m 1
 192 707 l 1
 192 0 l 1
 64 0 l 1
 64 707 l 1
EndSplineSet
EndChar
